<?xml version="1.0" encoding="utf-8"?>
<!-- Generator: Adobe Illustrator 21.0.0, SVG Export Plug-In . SVG Version: 6.00 Build 0)  -->
<svg version="1.1" xmlns="http://www.w3.org/2000/svg" xmlns:xlink="http://www.w3.org/1999/xlink" x="0px" y="0px"
	 viewBox="0 0 1024 350" style="enable-background:new 0 0 1024 350;" xml:space="preserve">
<style type="text/css">
	.st0{fill:#FFFFFF;}
	.st1{fill:#FDB515;}
	.st2{fill:#9F248F;}
	.st3{fill:#00BCE7;}
	.st4{fill:#2A285E;}
	.st5{fill:#F15D22;}
</style>
<g id="Layer_2">
	<polygon class="st0" points="1024,239.7 0,349.6 0,0.6 1024,0.6 	"/>
	<g>
		<path class="st1" d="M424.5,90.4c4.1,0,7.6-1.4,10.4-4.3c2.9-2.9,4.3-6.4,4.3-10.4c0-4.1-1.4-7.6-4.3-10.4
			c-2.9-2.9-6.4-4.3-10.4-4.3c-4.1,0-7.6,1.4-10.4,4.3c-2.9,2.9-4.3,6.4-4.3,10.4c0,4.1,1.4,7.6,4.3,10.4
			C417,88.9,420.5,90.4,424.5,90.4z"/>
		<path class="st2" d="M349.4,163.1h-9.8l3.5-3l-23.3-11.2l-2.1,1.9c-5.5,5-8.7,12-8.7,19.4v15.3H393v-1.5L349.4,163.1z"/>
		<rect x="264.8" y="144.1" class="st2" width="25.5" height="41.5"/>
		<path class="st3" d="M376.2,131.7c2.3-2,4.4-4.1,6.3-6.3c1.9-2.1,3.6-4.5,5-7c1.4-2.5,2.5-5.4,3.3-8.5c0.5-2.1,0.9-4.5,1.1-6.9
			l-40.9-22.5l-38.7,9.3c-0.9,3.2-1.5,6.6-1.7,10.4l25.5,1.9c0.3-4.3,1.8-7.9,4.5-10.9c2.7-2.9,6.4-4.4,11.1-4.4
			c4,0,7.4,1.2,10.4,3.5c2.9,2.3,4.4,5.5,4.4,9.6c0,3.6-1.2,6.8-3.6,9.5c-2.4,2.7-4.8,5.2-7.1,7.3l-30.6,27.5h36.6L376.2,131.7z"/>
		<polygon class="st3" points="290.3,103 264.8,103 264.8,122.4 290.3,134.7 		"/>
		<polygon class="st3" points="437.3,127.9 411.8,113.9 411.8,144.1 437.3,144.1 		"/>
		<polygon class="st4" points="393,163.1 349.4,163.1 393,184.1 		"/>
		<rect x="411.8" y="144.1" class="st4" width="25.5" height="41.5"/>
		<polygon class="st4" points="361.8,144.1 325.2,144.1 319.8,148.9 343.2,160.1 		"/>
		<path class="st1" d="M381.5,73.1c-0.3-0.2-0.5-0.5-0.8-0.8c-3.5-3-7.6-5.3-12.4-6.8c-4.8-1.5-9.8-2.3-15.3-2.3
			c-5.9,0-11.4,0.8-16.4,2.3c-2.6,0.8-5.1,1.8-7.4,3l21.6,11.9L381.5,73.1z"/>
		<path class="st5" d="M277.5,90.4c4.1,0,7.6-1.4,10.4-4.3c2.9-2.9,4.3-6.4,4.3-10.4c0-4.1-1.4-7.6-4.3-10.4
			c-2.9-2.9-6.4-4.3-10.4-4.3c-4.1,0-7.6,1.4-10.4,4.3c-2.9,2.9-4.3,6.4-4.3,10.4c0,4.1,1.4,7.6,4.3,10.4
			C270,88.9,273.4,90.4,277.5,90.4z"/>
		<path class="st5" d="M329.3,68.6c-2.1,1.1-4,2.4-5.8,3.8c-3.7,3.1-6.7,6.9-9,11.5c-0.9,1.8-1.6,3.8-2.2,5.8l38.7-9.3L329.3,68.6z"
			/>
		<path class="st3" d="M480.1,91.5c-8.7,0-15.1-6.8-15.1-15.5c0-8.6,6.4-15.6,15.2-15.6c5.5,0,8.7,1.9,11.7,4.8l-2.3,2.5
			c-2.5-2.4-5.4-4.1-9.5-4.1c-6.7,0-11.7,5.4-11.7,12.4s5,12.5,11.7,12.5c4.1,0,6.8-1.6,9.7-4.3l2.2,2.2
			C489,89.3,485.6,91.5,480.1,91.5z"/>
		<path class="st3" d="M520.3,63.9h-18.4v10.3h16.4v3.1h-16.4v10.5h18.6v3.1h-22V60.8h21.8V63.9z"/>
		<path class="st3" d="M549.9,60.8h3.3v30.1h-2.7l-19.4-24.7v24.7h-3.3V60.8h3.2l19,24.1V60.8z"/>
		<path class="st3" d="M573.6,90.9h-3.4V64H560v-3.1h23.7V64h-10.1V90.9z"/>
		<path class="st3" d="M612.2,63.9h-18.4v10.3h16.4v3.1h-16.4v10.5h18.6v3.1h-22V60.8h21.8V63.9z"/>
		<path class="st3" d="M640.4,90.9l-8.7-11.7h-8.6v11.7h-3.4V60.8h12.9c6.6,0,10.9,3.6,10.9,9c0,5-3.4,8-8.2,8.8l9.2,12.3H640.4z
			 M632.4,64h-9.3v12.2h9.2c4.5,0,7.7-2.3,7.7-6.2C640.1,66.2,637.2,64,632.4,64z"/>
		<path class="st3" d="M658,101.7c-1,0-1.9-0.2-2.7-0.5v-3.1c0.9,0.3,1.8,0.5,2.5,0.5c1.1,0,2-0.5,2.6-1.4s1.1-2.2,1.4-3.9l5-23.7
			h-4.2l0.3-1.5l4.5-1.4l0.5-2.2c0.7-2.9,1.6-5,2.8-6.2c1.2-1.2,3-1.8,5.3-1.8c0.6,0,1.3,0.1,2.1,0.3c0.8,0.2,1.5,0.4,2,0.6
			l-0.9,2.8c-1.1-0.4-2.1-0.6-3-0.6c-1.3,0-2.2,0.4-2.9,1.1c-0.7,0.7-1.2,2-1.7,3.9l-0.5,2.4h5.2l-0.5,2.8h-5.2l-5.1,24.1
			c-0.6,2.8-1.4,4.8-2.6,6.1C661.5,101.1,659.9,101.7,658,101.7z"/>
		<path class="st3" d="M690.7,66.6c2.8,0,5,0.8,6.6,2.5c1.6,1.6,2.4,3.9,2.4,6.8c0,2.7-0.5,5.3-1.6,7.8s-2.5,4.3-4.3,5.7
			c-1.8,1.3-3.8,2-6.1,2c-2.8,0-5-0.8-6.6-2.5c-1.6-1.7-2.4-3.9-2.4-6.8c0-2.8,0.5-5.4,1.6-7.8c1.1-2.4,2.5-4.3,4.3-5.6
			C686.4,67.2,688.4,66.6,690.7,66.6z M695.8,75.3c0-1.7-0.5-3-1.4-4.1c-0.9-1-2.2-1.6-3.7-1.6c-1.6,0-3,0.5-4.3,1.6
			c-1.3,1.1-2.2,2.6-2.9,4.5c-0.7,1.9-1,4.1-1,6.4c0,1.9,0.5,3.4,1.4,4.4c0.9,1,2.3,1.6,4,1.6c1.5,0,2.9-0.5,4.1-1.6
			c1.2-1.1,2.2-2.6,2.8-4.6C695.5,80.1,695.8,77.9,695.8,75.3z"/>
		<path class="st3" d="M718.7,66.5c1,0,1.9,0.1,2.6,0.3l-0.8,3.3c-0.8-0.2-1.5-0.3-2.3-0.3c-1.3,0-2.6,0.4-3.7,1.3
			c-1.2,0.9-2.2,2.1-3,3.7c-0.9,1.6-1.5,3.3-1.9,5.2l-2.3,11h-3.7l5.1-24h3l-0.5,4.5h0.2c1.1-1.4,1.9-2.4,2.6-3
			c0.7-0.6,1.4-1.1,2.2-1.4C716.9,66.6,717.8,66.5,718.7,66.5z"/>
		<path class="st3" d="M470,108.1v30.1h-3.4v-30.1H470z"/>
		<path class="st3" d="M500.5,108.1h3.3v30.1h-2.7l-19.4-24.7v24.7h-3.3v-30.1h3.2l19,24.1V108.1z"/>
		<path class="st3" d="M524.2,138.2h-3.4v-27h-10.1v-3.1h23.7v3.1h-10.1V138.2z"/>
		<path class="st3" d="M562.8,111.2h-18.4v10.3h16.4v3.1h-16.4v10.5h18.6v3.1h-22v-30.1h21.8V111.2z"/>
		<path class="st3" d="M584.3,138.8c-9.5,0-15.3-6.9-15.3-15.5c0-8.3,6.1-15.6,15.1-15.6c5.1,0,8.2,1.5,11.2,4l-2.2,2.6
			c-2.3-2-4.9-3.4-9.2-3.4c-6.7,0-11.4,5.6-11.4,12.4c0,7.2,4.6,12.6,11.9,12.6c3.4,0,6.6-1.3,8.7-3v-7.5H584v-3.1h12.4v12
			C593.6,136.6,589.4,138.8,584.3,138.8z"/>
		<path class="st3" d="M625.2,138.2l-8.7-11.7h-8.6v11.7h-3.4v-30.1h12.9c6.6,0,10.9,3.6,10.9,9c0,5-3.4,8-8.2,8.8l9.2,12.3H625.2z
			 M617.2,111.3h-9.3v12.2h9.2c4.5,0,7.7-2.3,7.7-6.2C624.9,113.5,622,111.3,617.2,111.3z"/>
		<path class="st3" d="M664,138.2h-3.7l-3.5-8h-16.4l-3.6,8h-3.5l13.7-30.3h3.2L664,138.2z M648.7,111.9l-6.9,15.4h13.7L648.7,111.9
			z"/>
		<path class="st3" d="M677,138.2h-3.4v-27h-10.1v-3.1h23.7v3.1H677V138.2z"/>
		<path class="st3" d="M697.6,108.1v30.1h-3.4v-30.1H697.6z"/>
		<path class="st3" d="M729.5,108.1h3.7l-12.9,30.3h-3l-12.9-30.3h3.8l10.7,25.9L729.5,108.1z"/>
		<path class="st3" d="M761.3,111.2h-18.4v10.3h16.4v3.1h-16.4v10.5h18.6v3.1h-22v-30.1h21.8V111.2z"/>
		<path class="st3" d="M469.7,172v13.5h-3.4v-30.1h3.4v13.4h17.4v-13.4h3.4v30.1h-3.4V172H469.7z"/>
		<path class="st3" d="M520.3,158.5h-18.4v10.3h16.4v3.1h-16.4v10.5h18.6v3.1h-22v-30.1h21.8V158.5z"/>
		<path class="st3" d="M555.8,185.5h-3.7l-3.5-8h-16.4l-3.6,8h-3.5l13.7-30.3h3.2L555.8,185.5z M540.5,159.2l-6.9,15.4h13.7
			L540.5,159.2z"/>
		<path class="st3" d="M561.3,155.4h3.4v27h16.9v3.1h-20.3V155.4z"/>
		<path class="st3" d="M594.5,185.5h-3.4v-27H581v-3.1h23.7v3.1h-10.1V185.5z"/>
		<path class="st3" d="M614.8,172v13.5h-3.4v-30.1h3.4v13.4h17.4v-13.4h3.4v30.1h-3.4V172H614.8z"/>
		<path class="st2" d="M264.8,211v-2.1h2.4v2.1H264.8z M264.9,222.2v-9.7h2.2v9.7H264.9z"/>
		<path class="st2" d="M271.5,222.2h-2.2v-9.7h2.2v1.5c0.6-0.9,1.5-1.7,3-1.7c2.2,0,3.4,1.5,3.4,3.7v6.2h-2.2v-5.5
			c0-1.5-0.8-2.4-2.1-2.4c-1.3,0-2.2,0.9-2.2,2.4V222.2z"/>
		<path class="st2" d="M283.2,222.4c-1.4,0-2.9-0.5-4.1-1.4l1-1.5c1,0.8,2.2,1.2,3.2,1.2c1,0,1.5-0.4,1.5-1v0c0-0.8-1-1-2.2-1.4
			c-1.4-0.4-3-1-3-2.8v0c0-1.8,1.5-3,3.4-3c1.2,0,2.5,0.4,3.6,1.1l-0.9,1.6c-0.9-0.6-1.9-0.9-2.7-0.9c-0.9,0-1.4,0.4-1.4,1v0
			c0,0.7,1,1,2.2,1.4c1.4,0.4,3,1.1,3,2.8v0C286.8,221.4,285.2,222.4,283.2,222.4z"/>
		<path class="st2" d="M288.4,211v-2.1h2.4v2.1H288.4z M288.5,222.2v-9.7h2.2v9.7H288.5z"/>
		<path class="st2" d="M297.2,225.2c-1.6,0-3.1-0.4-4.3-1.2l0.8-1.7c1,0.6,2.1,1,3.4,1c2,0,3.1-1,3.1-3v-0.8c-0.8,1-1.8,1.8-3.4,1.8
			c-2.3,0-4.4-1.7-4.4-4.6c0-2.9,2.1-4.6,4.4-4.6c1.6,0,2.6,0.8,3.4,1.7v-1.4h2.2v7.7C302.4,223.6,300.5,225.2,297.2,225.2z
			 M297.4,214.2c-1.5,0-2.8,1.1-2.8,2.7s1.2,2.7,2.8,2.7c1.5,0,2.8-1.1,2.8-2.7C300.2,215.2,298.9,214.2,297.4,214.2z"/>
		<path class="st2" d="M306.6,222.2h-2.2v-13.4h2.2v5.2c0.6-0.9,1.5-1.7,3-1.7c2.2,0,3.4,1.5,3.4,3.7v6.2h-2.2v-5.5
			c0-1.5-0.8-2.4-2.1-2.4c-1.3,0-2.2,0.9-2.2,2.4V222.2z"/>
		<path class="st2" d="M317.7,219.2c0,0.9,0.4,1.2,1.2,1.2c0.5,0,0.9-0.1,1.4-0.3v1.8c-0.6,0.3-1.2,0.5-2,0.5
			c-1.6,0-2.8-0.7-2.8-2.8v-5.1h-1.2v-1.9h1.2v-2.7h2.2v2.7h2.6v1.9h-2.6V219.2z"/>
		<path class="st2" d="M329.3,219.2c0,0.9,0.4,1.2,1.2,1.2c0.5,0,0.9-0.1,1.4-0.3v1.8c-0.6,0.3-1.2,0.5-2,0.5
			c-1.6,0-2.8-0.7-2.8-2.8v-5.1h-1.2v-1.9h1.2v-2.7h2.2v2.7h2.6v1.9h-2.6V219.2z"/>
		<path class="st2" d="M338.1,222.4c-3,0-5.1-2.3-5.1-5c0-2.8,2.2-5.1,5.2-5.1c3,0,5.2,2.3,5.2,5
			C343.3,220.1,341.1,222.4,338.1,222.4z M338.1,214.2c-1.8,0-2.9,1.4-2.9,3.1c0,1.7,1.2,3.1,3,3.1c1.8,0,2.9-1.4,2.9-3.1
			C341.1,215.6,339.8,214.2,338.1,214.2z"/>
		<path class="st2" d="M349.3,211v-2.1h2.4v2.1H349.3z M349.4,222.2v-9.7h2.2v9.7H349.4z"/>
		<path class="st2" d="M355.6,222.2h-2.2v-9.7h2.2v1.5c0.6-0.9,1.5-1.7,3-1.7c2.2,0,3.4,1.5,3.4,3.7v6.2h-2.2v-5.5
			c0-1.5-0.8-2.4-2.1-2.4c-1.3,0-2.2,0.9-2.2,2.4V222.2z"/>
		<path class="st2" d="M366.3,222.2H364v-9.7h2.2v1.5c0.6-0.9,1.5-1.7,3-1.7c2.2,0,3.4,1.5,3.4,3.7v6.2h-2.2v-5.5
			c0-1.5-0.8-2.4-2.1-2.4c-1.3,0-2.2,0.9-2.2,2.4V222.2z"/>
		<path class="st2" d="M379.4,222.4c-3,0-5.1-2.3-5.1-5c0-2.8,2.2-5.1,5.2-5.1s5.2,2.3,5.2,5C384.6,220.1,382.4,222.4,379.4,222.4z
			 M379.4,214.2c-1.8,0-2.9,1.4-2.9,3.1c0,1.7,1.2,3.1,3,3.1c1.8,0,2.9-1.4,2.9-3.1C382.4,215.6,381.2,214.2,379.4,214.2z"/>
		<path class="st2" d="M392.5,212.5h2.3l-4,9.8h-2l-4-9.8h2.4l2.6,7.1L392.5,212.5z"/>
		<path class="st2" d="M401.7,222.2V221c-0.7,0.8-1.7,1.4-3.1,1.4c-1.8,0-3.4-1-3.4-3v0c0-2.1,1.7-3.1,3.9-3.1
			c1.2,0,1.9,0.2,2.7,0.4v-0.2c0-1.3-0.8-2.1-2.4-2.1c-1.1,0-1.9,0.2-2.8,0.6l-0.6-1.8c1.1-0.5,2.1-0.8,3.7-0.8
			c2.9,0,4.3,1.5,4.3,4.1v5.7H401.7z M401.7,218.1c-0.6-0.2-1.4-0.4-2.2-0.4c-1.4,0-2.2,0.6-2.2,1.6v0c0,0.9,0.8,1.4,1.9,1.4
			c1.5,0,2.6-0.8,2.6-2V218.1z"/>
		<path class="st2" d="M408.5,219.2c0,0.9,0.4,1.2,1.2,1.2c0.5,0,0.9-0.1,1.4-0.3v1.8c-0.6,0.3-1.2,0.5-2,0.5
			c-1.6,0-2.8-0.7-2.8-2.8v-5.1h-1.2v-1.9h1.2v-2.7h2.2v2.7h2.6v1.9h-2.6V219.2z"/>
		<path class="st2" d="M412.8,211v-2.1h2.4v2.1H412.8z M412.9,222.2v-9.7h2.2v9.7H412.9z"/>
		<path class="st2" d="M421.9,222.4c-3,0-5.1-2.3-5.1-5c0-2.8,2.2-5.1,5.2-5.1s5.2,2.3,5.2,5C427.1,220.1,424.9,222.4,421.9,222.4z
			 M421.9,214.2c-1.8,0-2.9,1.4-2.9,3.1c0,1.7,1.2,3.1,3,3.1c1.8,0,2.9-1.4,2.9-3.1C424.8,215.6,423.6,214.2,421.9,214.2z"/>
		<path class="st2" d="M430.8,222.2h-2.2v-9.7h2.2v1.5c0.6-0.9,1.5-1.7,3-1.7c2.2,0,3.4,1.5,3.4,3.7v6.2h-2.2v-5.5
			c0-1.5-0.8-2.4-2.1-2.4c-1.3,0-2.2,0.9-2.2,2.4V222.2z"/>
	</g>
</g>
<g id="Layer_1">
</g>
</svg>
