<?xml version="1.0" encoding="utf-8"?>
<!-- Generator: Adobe Illustrator 22.0.1, SVG Export Plug-In . SVG Version: 6.00 Build 0)  -->
<svg version="1.1" id="Layer_1" xmlns="http://www.w3.org/2000/svg" xmlns:xlink="http://www.w3.org/1999/xlink" x="0px" y="0px"
	 viewBox="0 0 1151.8 389.3" style="enable-background:new 0 0 1151.8 389.3;" xml:space="preserve">
<style type="text/css">
	.st0{fill:#FDB515;}
	.st1{fill:#9F248F;}
	.st2{fill:#00BCE7;}
	.st3{fill:#2A285E;}
	.st4{fill:#F15D22;}
</style>
<g>
	<path class="st0" d="M373.6,78.1c9.4,0,17.5-3.3,24.1-10c6.7-6.7,10-14.7,10-24.1c0-9.4-3.3-17.5-10-24.1c-6.7-6.7-14.7-10-24.1-10
		c-9.4,0-17.4,3.3-24.1,10c-6.7,6.7-10,14.7-10,24.1c0,9.4,3.3,17.5,10,24.1C356.2,74.7,364.2,78.1,373.6,78.1z"/>
	<path class="st1" d="M200.1,246.1h-22.5l8.1-7l-53.9-25.9l-4.8,4.3c-12.7,11.4-20,27.8-20,44.9v35.4h193.7v-3.4L200.1,246.1z"/>
	<rect x="4.7" y="202.1" class="st1" width="58.8" height="95.8"/>
	<path class="st2" d="M261.9,173.5c5.2-4.7,10.1-9.5,14.5-14.5c4.4-5,8.3-10.4,11.6-16.3c3.3-5.9,5.8-12.4,7.6-19.6
		c1.3-4.9,2-10.3,2.4-16l-94.4-51.9l-89.3,21.4c-2.1,7.3-3.4,15.3-3.9,24l58.8,4.3c0.8-9.9,4.2-18.3,10.4-25.1
		c6.1-6.8,14.7-10.2,25.7-10.2c9.1,0,17.1,2.7,23.9,8c6.8,5.4,10.2,12.7,10.2,22.2c0,8.4-2.7,15.7-8.2,22
		c-5.5,6.3-11,11.9-16.5,16.9l-70.6,63.5h84.5L261.9,173.5z"/>
	<polygon class="st2" points="63.5,107.3 4.7,107.3 4.7,152.1 63.5,180.4 	"/>
	<polygon class="st2" points="403,164.8 344.2,132.5 344.2,202.1 403,202.1 	"/>
	<polygon class="st3" points="300.7,246.1 200.1,246.1 300.7,294.4 	"/>
	<rect x="344.2" y="202.1" class="st3" width="58.8" height="95.8"/>
	<polygon class="st3" points="228.7,202.1 144.2,202.1 131.8,213.2 185.7,239.1 	"/>
	<path class="st0" d="M274.3,38.2c-0.6-0.6-1.2-1.2-1.8-1.7c-8.1-6.9-17.6-12.2-28.6-15.7c-11-3.5-22.7-5.3-35.3-5.3
		c-13.6,0-26.2,1.8-37.8,5.3c-6.1,1.8-11.7,4.2-17,7l49.9,27.4L274.3,38.2z"/>
	<path class="st4" d="M34.1,78.1c9.4,0,17.5-3.3,24.1-10c6.7-6.7,10-14.7,10-24.1c0-9.4-3.3-17.5-10-24.1c-6.7-6.7-14.7-10-24.1-10
		c-9.4,0-17.4,3.3-24.1,10C3.3,26.5,0,34.5,0,44c0,9.4,3.3,17.5,10,24.1C16.7,74.7,24.7,78.1,34.1,78.1z"/>
	<path class="st4" d="M153.7,27.8c-4.8,2.6-9.3,5.5-13.4,8.9c-8.6,7.1-15.6,15.9-20.8,26.5c-2.1,4.2-3.8,8.7-5.2,13.5l89.3-21.4
		L153.7,27.8z"/>
	<path class="st2" d="M501.9,80.5c-20.1,0-34.9-15.8-34.9-35.8c0-19.9,14.7-36,35.2-36c12.6,0,20.2,4.5,27.1,11l-5.4,5.8
		c-5.9-5.6-12.4-9.5-21.8-9.5c-15.4,0-26.9,12.4-26.9,28.6s11.6,28.8,26.9,28.8c9.5,0,15.8-3.7,22.4-10l5.2,5.1
		C522.5,75.7,514.6,80.5,501.9,80.5z"/>
	<path class="st2" d="M594.7,17h-42.4v23.7h37.9v7.2h-37.9v24.3h42.9v7.2h-50.7V9.8h50.2V17z"/>
	<path class="st2" d="M663.1,9.8h7.6v69.5h-6.3l-44.9-57v57H612V9.8h7.3l43.8,55.7V9.8z"/>
	<path class="st2" d="M717.7,79.4h-7.9V17.1h-23.3V9.8h54.6v7.2h-23.3V79.4z"/>
	<path class="st2" d="M807,17h-42.4v23.7h37.9v7.2h-37.9v24.3h42.9v7.2h-50.7V9.8H807V17z"/>
	<path class="st2" d="M872.2,79.4l-20.2-27h-19.9v27h-7.8V9.8h29.9c15.3,0,25.1,8.2,25.1,20.8c0,11.6-7.9,18.4-18.9,20.4l21.4,28.4
		H872.2z M853.6,17.1h-21.5v28.2h21.4c10.4,0,17.9-5.4,17.9-14.4C871.4,22.3,864.8,17.1,853.6,17.1z"/>
	<path class="st2" d="M912.7,104.3c-2.3,0-4.4-0.4-6.3-1.1v-7.1c2.2,0.7,4.1,1.1,5.7,1.1c2.6,0,4.5-1,5.9-3.1s2.5-5.1,3.3-9
		l11.5-54.8H923l0.7-3.4l10.4-3.3l1.2-5.1c1.6-6.8,3.7-11.5,6.5-14.3C944.5,1.4,948.5,0,954,0c1.3,0,3,0.2,5,0.6
		c2,0.4,3.5,0.8,4.6,1.3l-2.2,6.5c-2.6-1-4.9-1.5-6.9-1.5c-2.9,0-5.2,0.8-6.8,2.5s-2.8,4.6-3.8,9l-1.3,5.5h12.1l-1.3,6.4h-12
		l-11.8,55.6c-1.3,6.4-3.3,11-6.1,14C920.7,102.8,917.1,104.3,912.7,104.3z"/>
	<path class="st2" d="M988.2,23.1c6.4,0,11.5,1.9,15.2,5.7c3.7,3.8,5.6,9,5.6,15.7c0,6.3-1.2,12.3-3.6,18c-2.4,5.6-5.7,10-9.9,13.1
		c-4.2,3.1-8.8,4.6-14.1,4.6c-6.5,0-11.6-1.9-15.2-5.7c-3.7-3.8-5.5-9-5.5-15.6c0-6.4,1.2-12.4,3.7-18.1c2.5-5.7,5.8-10,10-13
		C978.4,24.7,983.1,23.1,988.2,23.1z M1000.1,43.3c0-3.9-1.1-7-3.2-9.4c-2.1-2.4-5-3.6-8.6-3.6c-3.7,0-7,1.2-9.9,3.7
		c-2.9,2.5-5.2,6-6.8,10.4c-1.6,4.4-2.4,9.4-2.4,14.8c0,4.4,1.1,7.8,3.2,10.3c2.1,2.4,5.2,3.6,9.2,3.6c3.5,0,6.7-1.2,9.5-3.7
		c2.8-2.5,5-6,6.6-10.5C999.3,54.4,1000.1,49.2,1000.1,43.3z"/>
	<path class="st2" d="M1052.9,22.8c2.3,0,4.4,0.2,6.1,0.7l-1.8,7.6c-1.8-0.4-3.6-0.7-5.3-0.7c-3.1,0-5.9,1-8.6,3c-2.7,2-5,4.8-7,8.4
		c-2,3.6-3.5,7.6-4.4,12l-5.4,25.4h-8.5l11.8-55.5h7l-1.1,10.3h0.5c2.4-3.2,4.4-5.5,6-6.9c1.6-1.4,3.2-2.5,5-3.2
		C1048.8,23.2,1050.8,22.8,1052.9,22.8z"/>
	<path class="st2" d="M478.7,119.1v69.5h-7.8v-69.5H478.7z"/>
	<path class="st2" d="M549.1,119.1h7.6v69.5h-6.3l-44.9-57v57H498v-69.5h7.3l43.8,55.7V119.1z"/>
	<path class="st2" d="M603.7,188.6h-7.9v-62.3h-23.3v-7.2h54.6v7.2h-23.3V188.6z"/>
	<path class="st2" d="M693,126.2h-42.4V150h37.9v7.2h-37.9v24.3h42.9v7.2h-50.7v-69.5H693V126.2z"/>
	<path class="st2" d="M742.6,189.8c-21.8,0-35.4-15.9-35.4-35.8c0-19.2,14-36,34.9-36c11.7,0,19,3.4,25.9,9.2l-5.1,6
		c-5.4-4.7-11.3-7.9-21.2-7.9c-15.4,0-26.4,13-26.4,28.6c0,16.7,10.6,29,27.5,29c7.9,0,15.3-3.1,20.1-7v-17.3h-21.2v-7.1h28.7v27.7
		C764,184.9,754.3,189.8,742.6,189.8z"/>
	<path class="st2" d="M837,188.6l-20.2-27H797v27h-7.8v-69.5H819c15.3,0,25.1,8.2,25.1,20.8c0,11.6-7.9,18.4-18.9,20.4l21.4,28.4
		H837z M818.4,126.3H797v28.2h21.4c10.4,0,17.9-5.4,17.9-14.4C836.2,131.5,829.7,126.3,818.4,126.3z"/>
	<path class="st2" d="M926.7,188.6h-8.4l-8.1-18.4h-37.8l-8.2,18.4h-8l31.7-70h7.3L926.7,188.6z M891.2,127.7l-15.9,35.5H907
		L891.2,127.7z"/>
	<path class="st2" d="M956.7,188.6h-7.9v-62.3h-23.3v-7.2H980v7.2h-23.3V188.6z"/>
	<path class="st2" d="M1004.2,119.1v69.5h-7.8v-69.5H1004.2z"/>
	<path class="st2" d="M1077.9,119.1h8.4l-29.9,70h-7l-29.9-70h8.7l24.7,59.9L1077.9,119.1z"/>
	<path class="st2" d="M1151.3,126.2h-42.4V150h37.9v7.2h-37.9v24.3h42.9v7.2h-50.7v-69.5h50.2V126.2z"/>
	<path class="st2" d="M478,266.6v31.3h-7.8v-69.5h7.8v30.9h40.1v-30.9h7.8v69.5h-7.8v-31.3H478z"/>
	<path class="st2" d="M594.8,235.5h-42.4v23.7h37.9v7.1h-37.9v24.3h42.9v7.1h-50.7v-69.5h50.2V235.5z"/>
	<path class="st2" d="M676.8,297.8h-8.4l-8.1-18.4h-37.8l-8.2,18.4h-8l31.7-70h7.3L676.8,297.8z M641.4,237l-15.9,35.5h31.7
		L641.4,237z"/>
	<path class="st2" d="M689.4,228.3h7.8v62.3h39.1v7.2h-47V228.3z"/>
	<path class="st2" d="M766.2,297.8h-7.9v-62.3h-23.3v-7.2h54.6v7.2h-23.3V297.8z"/>
	<path class="st2" d="M813,266.6v31.3h-7.8v-69.5h7.8v30.9h40.1v-30.9h7.8v69.5h-7.8v-31.3H813z"/>
	<path class="st1" d="M4.7,356.6v-4.9h5.5v4.9H4.7z M4.9,382.4v-22.4H10v22.4H4.9z"/>
	<path class="st1" d="M20.2,382.4H15v-22.4h5.1v3.5c1.4-2.1,3.5-3.9,7-3.9c5,0,8,3.4,8,8.6v14.2H30v-12.7c0-3.5-1.7-5.5-4.8-5.5
		c-3,0-5,2.1-5,5.6V382.4z"/>
	<path class="st1" d="M47.3,382.9c-3.2,0-6.7-1.1-9.5-3.3l2.3-3.5c2.4,1.8,5,2.8,7.3,2.8c2.2,0,3.5-0.9,3.5-2.4v-0.1
		c0-1.7-2.4-2.3-5-3.1c-3.3-0.9-7-2.3-7-6.6v-0.1c0-4.2,3.5-6.8,8-6.8c2.8,0,5.8,1,8.2,2.5l-2,3.6c-2.2-1.3-4.4-2.1-6.3-2.1
		c-2,0-3.1,0.9-3.1,2.2v0.1c0,1.6,2.4,2.3,5,3.1c3.3,1,6.9,2.5,6.9,6.5v0.1C55.6,380.5,51.9,382.9,47.3,382.9z"/>
	<path class="st1" d="M59.2,356.6v-4.9h5.5v4.9H59.2z M59.4,382.4v-22.4h5.1v22.4H59.4z"/>
	<path class="st1" d="M79.5,389.3c-3.7,0-7.1-0.9-10-2.7l1.9-3.9c2.4,1.5,4.9,2.4,8,2.4c4.6,0,7.1-2.4,7.1-6.9v-1.7
		c-1.9,2.4-4.2,4.1-7.9,4.1c-5.3,0-10.2-3.9-10.2-10.5c0-6.6,5-10.5,10.2-10.5c3.8,0,6.1,1.7,7.8,3.8v-3.3h5.1v17.8
		C91.5,385.8,87.2,389.3,79.5,389.3z M79.9,363.9c-3.6,0-6.4,2.5-6.4,6.2s2.8,6.2,6.4,6.2c3.6,0,6.6-2.5,6.6-6.2
		C86.5,366.4,83.5,363.9,79.9,363.9z"/>
	<path class="st1" d="M101.4,382.4h-5.1v-30.9h5.1v12c1.4-2.1,3.5-3.9,7-3.9c5,0,8,3.4,8,8.6v14.2h-5.1v-12.7c0-3.5-1.7-5.5-4.8-5.5
		c-3,0-5,2.1-5,5.6V382.4z"/>
	<path class="st1" d="M127,375.5c0,2,1,2.8,2.8,2.8c1.1,0,2.2-0.3,3.2-0.8v4.2c-1.3,0.7-2.7,1.1-4.6,1.1c-3.8,0-6.4-1.7-6.4-6.6
		v-11.8H119v-4.4h2.8v-6.1h5.1v6.1h6v4.4h-6V375.5z"/>
	<path class="st1" d="M153.7,375.5c0,2,1,2.8,2.8,2.8c1.1,0,2.2-0.3,3.2-0.8v4.2c-1.3,0.7-2.7,1.1-4.6,1.1c-3.8,0-6.4-1.7-6.4-6.6
		v-11.8h-2.8v-4.4h2.8v-6.1h5.1v6.1h6v4.4h-6V375.5z"/>
	<path class="st1" d="M174,383c-6.8,0-11.9-5.2-11.9-11.6c0-6.4,5.1-11.7,11.9-11.7c6.9,0,11.9,5.2,11.9,11.7
		C186,377.7,180.9,383,174,383z M174,364.1c-4.1,0-6.7,3.2-6.7,7.2c0,4,2.8,7.2,6.8,7.2c4.2,0,6.8-3.2,6.8-7.2
		C180.8,367.4,178,364.1,174,364.1z"/>
	<path class="st1" d="M199.8,356.6v-4.9h5.5v4.9H199.8z M200,382.4v-22.4h5.1v22.4H200z"/>
	<path class="st1" d="M214.5,382.4h-5.1v-22.4h5.1v3.5c1.4-2.1,3.5-3.9,7-3.9c5,0,8,3.4,8,8.6v14.2h-5.1v-12.7
		c0-3.5-1.7-5.5-4.8-5.5c-3,0-5,2.1-5,5.6V382.4z"/>
	<path class="st1" d="M239,382.4h-5.1v-22.4h5.1v3.5c1.4-2.1,3.5-3.9,7-3.9c5,0,8,3.4,8,8.6v14.2h-5.1v-12.7c0-3.5-1.7-5.5-4.8-5.5
		c-3,0-5,2.1-5,5.6V382.4z"/>
	<path class="st1" d="M269.5,383c-6.8,0-11.9-5.2-11.9-11.6c0-6.4,5.1-11.7,11.9-11.7c6.9,0,11.9,5.2,11.9,11.7
		C281.5,377.7,276.4,383,269.5,383z M269.5,364.1c-4.1,0-6.7,3.2-6.7,7.2c0,4,2.8,7.2,6.8,7.2c4.2,0,6.8-3.2,6.8-7.2
		C276.3,367.4,273.5,364.1,269.5,364.1z"/>
	<path class="st1" d="M299.6,360.1h5.4l-9.2,22.5h-4.6l-9.2-22.5h5.5l6,16.4L299.6,360.1z"/>
	<path class="st1" d="M320.8,382.4v-2.8c-1.5,1.8-3.9,3.2-7.2,3.2c-4.2,0-8-2.4-8-6.9v-0.1c0-4.8,3.9-7.2,9.1-7.2
		c2.7,0,4.4,0.4,6.2,0.9v-0.6c0-3.1-1.9-4.8-5.5-4.8c-2.5,0-4.4,0.6-6.4,1.4l-1.4-4.1c2.5-1.1,4.9-1.9,8.5-1.9
		c6.6,0,9.8,3.5,9.8,9.4v13.3H320.8z M320.9,372.9c-1.3-0.5-3.1-0.9-5.1-0.9c-3.2,0-5.1,1.3-5.1,3.6v0.1c0,2.1,1.9,3.3,4.3,3.3
		c3.4,0,5.9-1.9,5.9-4.7V372.9z"/>
	<path class="st1" d="M336.7,375.5c0,2,1,2.8,2.8,2.8c1.1,0,2.2-0.3,3.2-0.8v4.2c-1.3,0.7-2.7,1.1-4.6,1.1c-3.8,0-6.4-1.7-6.4-6.6
		v-11.8h-2.8v-4.4h2.8v-6.1h5.1v6.1h6v4.4h-6V375.5z"/>
	<path class="st1" d="M346.5,356.6v-4.9h5.5v4.9H346.5z M346.7,382.4v-22.4h5.1v22.4H346.7z"/>
	<path class="st1" d="M367.4,383c-6.8,0-11.9-5.2-11.9-11.6c0-6.4,5.1-11.7,11.9-11.7s11.9,5.2,11.9,11.7
		C379.4,377.7,374.3,383,367.4,383z M367.4,364.1c-4.1,0-6.7,3.2-6.7,7.2c0,4,2.8,7.2,6.8,7.2c4.2,0,6.8-3.2,6.8-7.2
		C374.3,367.4,371.5,364.1,367.4,364.1z"/>
	<path class="st1" d="M388.1,382.4h-5.1v-22.4h5.1v3.5c1.4-2.1,3.5-3.9,7-3.9c5,0,8,3.4,8,8.6v14.2h-5.1v-12.7
		c0-3.5-1.7-5.5-4.8-5.5c-3,0-5,2.1-5,5.6V382.4z"/>
</g>
</svg>
